<mxfile>
    <diagram id="VgZkpcFUQaif8pgN9zjC" name="Page-1">
        <mxGraphModel dx="434" dy="1140" grid="1" gridSize="10" guides="1" tooltips="1" connect="1" arrows="1" fold="1" page="1" pageScale="1" pageWidth="827" pageHeight="1169" math="0" shadow="0">
            <root>
                <mxCell id="0"/>
                <mxCell id="1" parent="0"/>
                <mxCell id="29" value="" style="rounded=0;whiteSpace=wrap;html=1;" vertex="1" parent="1">
                    <mxGeometry x="400" y="120" width="410" height="480" as="geometry"/>
                </mxCell>
                <mxCell id="28" value="" style="rounded=0;whiteSpace=wrap;html=1;" vertex="1" parent="1">
                    <mxGeometry x="10" y="120" width="390" height="480" as="geometry"/>
                </mxCell>
                <mxCell id="2" value="Type Query" style="rounded=0;whiteSpace=wrap;html=1;" vertex="1" parent="1">
                    <mxGeometry x="40" y="240" width="100" height="30" as="geometry"/>
                </mxCell>
                <mxCell id="3" value="Type Mutation" style="rounded=0;whiteSpace=wrap;html=1;" vertex="1" parent="1">
                    <mxGeometry x="40" y="380" width="100" height="30" as="geometry"/>
                </mxCell>
                <mxCell id="4" value="Type Subscription" style="rounded=0;whiteSpace=wrap;html=1;" vertex="1" parent="1">
                    <mxGeometry x="40" y="490" width="100" height="30" as="geometry"/>
                </mxCell>
                <mxCell id="5" value="getDogの戻り値&lt;br&gt;= Dog型" style="rounded=0;whiteSpace=wrap;html=1;" vertex="1" parent="1">
                    <mxGeometry x="210" y="180" width="150" height="30" as="geometry"/>
                </mxCell>
                <mxCell id="7" value="ListDogsの戻り値&lt;br&gt;= Dog型の配列" style="rounded=0;whiteSpace=wrap;html=1;" vertex="1" parent="1">
                    <mxGeometry x="210" y="240" width="150" height="30" as="geometry"/>
                </mxCell>
                <mxCell id="8" value="" style="endArrow=none;html=1;strokeWidth=2;exitX=1;exitY=0.5;exitDx=0;exitDy=0;entryX=0;entryY=0.5;entryDx=0;entryDy=0;" edge="1" parent="1" source="2" target="5">
                    <mxGeometry width="50" height="50" relative="1" as="geometry">
                        <mxPoint x="500" y="340" as="sourcePoint"/>
                        <mxPoint x="550" y="290" as="targetPoint"/>
                    </mxGeometry>
                </mxCell>
                <mxCell id="10" value="" style="endArrow=none;html=1;strokeWidth=2;exitX=1;exitY=0.5;exitDx=0;exitDy=0;entryX=0;entryY=0.5;entryDx=0;entryDy=0;" edge="1" parent="1" source="2" target="7">
                    <mxGeometry width="50" height="50" relative="1" as="geometry">
                        <mxPoint x="150" y="265" as="sourcePoint"/>
                        <mxPoint x="220" y="205" as="targetPoint"/>
                    </mxGeometry>
                </mxCell>
                <mxCell id="15" value="updateDogの戻り値&lt;br&gt;= DogUpdateResponse型" style="rounded=0;whiteSpace=wrap;html=1;" vertex="1" parent="1">
                    <mxGeometry x="210" y="380" width="150" height="30" as="geometry"/>
                </mxCell>
                <mxCell id="16" value="" style="endArrow=none;html=1;strokeWidth=2;exitX=1;exitY=0.5;exitDx=0;exitDy=0;entryX=0;entryY=0.5;entryDx=0;entryDy=0;" edge="1" parent="1" source="3" target="15">
                    <mxGeometry width="50" height="50" relative="1" as="geometry">
                        <mxPoint x="150" y="265" as="sourcePoint"/>
                        <mxPoint x="220" y="265" as="targetPoint"/>
                    </mxGeometry>
                </mxCell>
                <mxCell id="17" value="liftDogChangeの戻り値&lt;br&gt;= Dog型" style="rounded=0;whiteSpace=wrap;html=1;" vertex="1" parent="1">
                    <mxGeometry x="210" y="490" width="150" height="30" as="geometry"/>
                </mxCell>
                <mxCell id="18" value="" style="endArrow=none;html=1;strokeWidth=2;exitX=1;exitY=0.5;exitDx=0;exitDy=0;entryX=0;entryY=0.5;entryDx=0;entryDy=0;" edge="1" parent="1" source="4" target="17">
                    <mxGeometry width="50" height="50" relative="1" as="geometry">
                        <mxPoint x="150" y="405" as="sourcePoint"/>
                        <mxPoint x="220" y="405" as="targetPoint"/>
                    </mxGeometry>
                </mxCell>
                <mxCell id="19" value="「Dog型」&lt;br&gt;&lt;br&gt;ID: ID型&lt;br&gt;name: 文字列型&lt;br&gt;age: 数値型&lt;br&gt;friendIds: 数値型の配列&lt;br&gt;owner: Owner型" style="rounded=0;whiteSpace=wrap;html=1;" vertex="1" parent="1">
                    <mxGeometry x="440" y="180" width="150" height="110" as="geometry"/>
                </mxCell>
                <mxCell id="20" value="「Owner型」&lt;br&gt;&lt;br&gt;name: 文字列型&lt;br&gt;age: 数値型&lt;br&gt;address: 文字列型" style="rounded=0;whiteSpace=wrap;html=1;" vertex="1" parent="1">
                    <mxGeometry x="640" y="180" width="150" height="110" as="geometry"/>
                </mxCell>
                <mxCell id="21" value="「DogUpdateResponse型」&lt;br&gt;&lt;br&gt;error: 文字列型の配列" style="rounded=0;whiteSpace=wrap;html=1;" vertex="1" parent="1">
                    <mxGeometry x="440" y="370" width="160" height="80" as="geometry"/>
                </mxCell>
                <mxCell id="23" value="" style="endArrow=none;html=1;strokeWidth=2;" edge="1" parent="1" source="19" target="20">
                    <mxGeometry width="50" height="50" relative="1" as="geometry">
                        <mxPoint x="589" y="235" as="sourcePoint"/>
                        <mxPoint x="220" y="405" as="targetPoint"/>
                    </mxGeometry>
                </mxCell>
                <mxCell id="24" value="" style="endArrow=none;html=1;strokeWidth=2;exitX=1;exitY=0.5;exitDx=0;exitDy=0;entryX=0;entryY=0.5;entryDx=0;entryDy=0;dashed=1;" edge="1" parent="1" source="5" target="19">
                    <mxGeometry width="50" height="50" relative="1" as="geometry">
                        <mxPoint x="600" y="245" as="sourcePoint"/>
                        <mxPoint x="650" y="245" as="targetPoint"/>
                    </mxGeometry>
                </mxCell>
                <mxCell id="25" value="" style="endArrow=none;html=1;strokeWidth=2;exitX=1;exitY=0.5;exitDx=0;exitDy=0;entryX=0;entryY=0.5;entryDx=0;entryDy=0;dashed=1;" edge="1" parent="1" source="7" target="19">
                    <mxGeometry width="50" height="50" relative="1" as="geometry">
                        <mxPoint x="370" y="205" as="sourcePoint"/>
                        <mxPoint x="450" y="245" as="targetPoint"/>
                    </mxGeometry>
                </mxCell>
                <mxCell id="26" value="" style="endArrow=none;html=1;strokeWidth=2;exitX=1;exitY=0.5;exitDx=0;exitDy=0;entryX=0;entryY=0.5;entryDx=0;entryDy=0;dashed=1;" edge="1" parent="1" source="17" target="19">
                    <mxGeometry width="50" height="50" relative="1" as="geometry">
                        <mxPoint x="370" y="265" as="sourcePoint"/>
                        <mxPoint x="450" y="245" as="targetPoint"/>
                    </mxGeometry>
                </mxCell>
                <mxCell id="27" value="" style="endArrow=none;html=1;strokeWidth=2;exitX=1;exitY=0.5;exitDx=0;exitDy=0;dashed=1;" edge="1" parent="1" source="15" target="21">
                    <mxGeometry width="50" height="50" relative="1" as="geometry">
                        <mxPoint x="370" y="515" as="sourcePoint"/>
                        <mxPoint x="450" y="245" as="targetPoint"/>
                    </mxGeometry>
                </mxCell>
                <mxCell id="30" value="関数の戻り値(引数)の型宣言" style="text;html=1;fillColor=none;align=center;verticalAlign=middle;whiteSpace=wrap;rounded=0;strokeColor=#000000;" vertex="1" parent="1">
                    <mxGeometry x="10" y="120" width="220" height="30" as="geometry"/>
                </mxCell>
                <mxCell id="31" value="新しい型の宣言" style="text;html=1;fillColor=none;align=center;verticalAlign=middle;whiteSpace=wrap;rounded=0;strokeColor=#030303;" vertex="1" parent="1">
                    <mxGeometry x="400" y="120" width="220" height="30" as="geometry"/>
                </mxCell>
            </root>
        </mxGraphModel>
    </diagram>
</mxfile>